<svg xmlns="http://www.w3.org/2000/svg" viewBox="0 0 94.72 85.27"><defs><style>.cls-1{fill:none;stroke:#231916;stroke-miterlimit:10;}</style></defs><title>Asset 9</title><g id="Layer_2" data-name="Layer 2"><g id="레이어_1" data-name="레이어 1"><path class="cls-1" d="M15,38.18l2.93,14.74a53.41,53.41,0,0,0,1.43,6,37.74,37.74,0,0,1,1.5,4.85,25.42,25.42,0,0,1,.2,4.86A68.13,68.13,0,0,0,23,85.15"/><path class="cls-1" d="M78.27,38.69c.34,7.15.67,14.45-1.37,21.31-.59,2-1.38,4-1.9,6-1.54,6.09-.51,12.51.8,18.66"/><path class="cls-1" d="M33.82.67a15.67,15.67,0,0,1-5.21,9.51c-4,3.43-9.45,4.65-13.68,7.77-6.75,5-9.24,13.9-10.19,22.24s-.89,17-4.28,24.69"/><path class="cls-1" d="M58.93.2C57.72,3,59.28,6.4,61.7,8.3s5.5,2.66,8.46,3.5c6,1.71,12.28,4.14,16,9.2,2.78,3.82,3.72,8.64,4.55,13.29,1,5.75,2,11.59,1.5,17.41-.35,4.19-1.45,8.32-1.58,12.53-.2,6.24,1.74,12.33,3.65,18.28"/><path class="cls-1" d="M18.32,56a25.39,25.39,0,0,1-1,10c-1.3,4.17-3.7,8.13-3.7,12.49"/><path class="cls-1" d="M77.51,59.65A9.48,9.48,0,0,1,78.1,64c0,4.09,1.16,8.08,2.28,12"/><path class="cls-1" d="M18.66,44.68A6.6,6.6,0,0,0,20,47.75a24.42,24.42,0,0,0,5.57,6.72A12.74,12.74,0,0,0,35,57"/><path class="cls-1" d="M59.12,55.06c0,.57.7.76,1.22.78l4.39.14c1.73.06,3.61.08,5-1a7.82,7.82,0,0,0,1.84-2.36,45.78,45.78,0,0,0,4.62-11.27"/><path class="cls-1" d="M40.65,67.85a32.09,32.09,0,0,0-3,14.66"/><path class="cls-1" d="M58,66.82a24.06,24.06,0,0,1,6.74,15.06"/><path class="cls-1" d="M33,13.58A7.56,7.56,0,0,0,38.88,15"/><path class="cls-1" d="M52.3,15.07a4.68,4.68,0,0,0,6.82-1.65"/></g></g></svg>