<svg xmlns="http://www.w3.org/2000/svg" viewBox="0 0 57.98 12.72"><defs><style>.cls-1{fill:#b5b6b6;stroke:#b5b6b6;stroke-width:2px;}.cls-1,.cls-2{stroke-miterlimit:10;}.cls-2{font-size:5.06px;fill:#231916;stroke:#231916;stroke-width:0.25px;font-family:AdobeMyungjoStd-Medium-KSCpc-EUC-H, Adobe Myungjo Std;}</style></defs><title>Asset 4</title><g id="Layer_2" data-name="Layer 2"><g id="레이어_1" data-name="레이어 1"><path class="cls-1" d="M1.89,5.43A14.25,14.25,0,0,0,3.22,8.8,10.6,10.6,0,0,0,5.7,11.41,2.38,2.38,0,0,0,5.58,8a1.45,1.45,0,0,1-.39-.39.94.94,0,0,1-.07-.5l0-2.66a3.16,3.16,0,0,0-.1-1.06A2.86,2.86,0,0,0,4,2.12a3.79,3.79,0,0,0-1.4-.71C-.29.8,1.57,4.32,1.89,5.43Z"/><path class="cls-1" d="M55.66,8.18a13.9,13.9,0,0,0,.88-3.51A10.32,10.32,0,0,0,56,1.1,2.39,2.39,0,0,0,54.13,4a1.31,1.31,0,0,1,.1.55A1,1,0,0,1,54,5L52.42,7.1a2.88,2.88,0,0,0-.53.93,2.74,2.74,0,0,0,.17,1.64,3.66,3.66,0,0,0,.72,1.4C54.75,13.21,55.28,9.27,55.66,8.18Z"/><text class="cls-2" transform="translate(1 6.72) scale(1.19 1)">③</text><text class="cls-2" transform="translate(51.82 8.44) scale(1.19 1)">③</text></g></g></svg>