<svg xmlns="http://www.w3.org/2000/svg" viewBox="0 0 55.69 19.7"><defs><style>.cls-1{fill:#b5b6b6;stroke:#b5b6b6;}.cls-1,.cls-2{stroke-miterlimit:10;}.cls-2{font-size:4.33px;fill:#231916;stroke:#231916;stroke-width:0.25px;font-family:AdobeMyungjoStd-Medium-KSCpc-EUC-H, Adobe Myungjo Std;}</style></defs><title>Asset 7</title><g id="Layer_2" data-name="Layer 2"><g id="레이어_1" data-name="레이어 1"><path class="cls-1" d="M9.34,4.71c1,0,2.22-.21,3,.43a3.14,3.14,0,0,1,.73.93A4.37,4.37,0,0,1,14,8.24a4.45,4.45,0,0,1-1.09,2.47l-3,4.21a16.51,16.51,0,0,1-2.75,3.21c-1.11.91-2.83,1.52-4,.65-.91-2.21-.17-4.73-.49-7.09C2.37,9.81-.76,4.75,1.07,3.32,2.55,2.16,7.32,4.81,9.34,4.71Z"/><path class="cls-1" d="M44.81,3.62a23.62,23.62,0,0,0-3.52.93,3.85,3.85,0,0,0-2.37,2.08c-.34,1.14.44,2.32,1.48,3.18s2.33,1.51,3.35,2.38a14.5,14.5,0,0,1,1.59,1.65L48,17l1.29.24c1.28-1.39.91-3.26,1-5a8.75,8.75,0,0,1,1.68-4.46c.75-1,1.73-2,2.41-3,1-1.59,1.37-4.31-1.68-4.24C50.24.56,47.33,3,44.81,3.62Z"/><text class="cls-2" transform="translate(43.72 8.85) scale(1.07 1)">⑥</text><text class="cls-2" transform="translate(5.03 10.73) scale(1.07 1)">⑥</text></g></g></svg>