<svg xmlns="http://www.w3.org/2000/svg" viewBox="0 0 44.13 6.67"><defs><style>.cls-1{fill:#b5b6b6;stroke:#b5b6b6;stroke-width:2px;}.cls-1,.cls-2{stroke-miterlimit:10;}.cls-2{font-size:4.33px;fill:#231916;stroke:#231916;stroke-width:0.25px;font-family:AdobeMyungjoStd-Medium-KSCpc-EUC-H, Adobe Myungjo Std;}</style></defs><title>Asset 6</title><g id="Layer_2" data-name="Layer 2"><g id="레이어_1" data-name="레이어 1"><path class="cls-1" d="M37,4.24a18.68,18.68,0,0,0,3-.54,8.88,8.88,0,0,0,2.37-1.17,3.24,3.24,0,0,0-3-.09,1.23,1.23,0,0,1-.36.19,1.6,1.6,0,0,1-.44,0l-2.35-.13a4.21,4.21,0,0,0-.94,0A2.47,2.47,0,0,0,34.1,3a1.83,1.83,0,0,0-.67.69C32.82,5.17,36,4.36,37,4.24Z"/><path class="cls-1" d="M6.88,4.83A13.76,13.76,0,0,1,3.77,3.62,9.15,9.15,0,0,1,1.39,1.5a2.47,2.47,0,0,1,3.23.22A1.1,1.1,0,0,0,5,2.05a1.06,1.06,0,0,0,.47.08l2.49.05a3.29,3.29,0,0,1,1,.13,2.6,2.6,0,0,1,1.13.94,3,3,0,0,1,.63,1.18C11.16,6.78,7.91,5.14,6.88,4.83Z"/><text class="cls-2" transform="translate(36.72 4.72) scale(1.07 1)">⑤</text><text class="cls-2" transform="translate(3.59 4.72) scale(1.07 1)">⑤</text></g></g></svg>